# xmcd CD database file
#
# Track frame offsets:
#	150
#	14266
#	25317
#	41867
#	55325
#	70346
#	82111
#	100027
#	111792
#	125904
#	145060
#	157368
#	171452
#	190521
#	203035
#
# Disc length: 2894 seconds
#
# Revision: 0
# Processed by: cddbd v1.5.1PL0 Copyright (c) Steve Scherf et al.
# Submitted via: CDex 1.51
#
DISCID=dc0b4c0f
DTITLE=Norah Jones - Come Away With Me
DYEAR=2002
DGENRE=Jazz
TTITLE0=Don't Know Why
TTITLE1=Seven Years
TTITLE2=Cold Cold Heart
TTITLE3=Feelin' The Same Way
TTITLE4=Come Away With Me
TTITLE5=Shoot The Moon
TTITLE6=Turn Me On
TTITLE7=Come Away With Me
TTITLE8=Lonestar
TTITLE9=I've Got To See You Again
TTITLE10=Painter Song
TTITLE11=One Flight Down
TTITLE12=Nightingale
TTITLE13=The Long Day Is Over
TTITLE14=Bonus Track
EXTD=YEAR: 2002
EXTT0=
EXTT1=
EXTT2=
EXTT3=
EXTT4=
EXTT5=
EXTT6=
EXTT7=
EXTT8=
EXTT9=
EXTT10=
EXTT11=
EXTT12=
EXTT13=
EXTT14=
PLAYORDER=
